<svg xmlns="http://www.w3.org/2000/svg"><symbol id="android-logo" viewBox="0 0 42.084 47.041"><path fill="#A4C639" d="M34.144 14.01h-26.2c-.008.11-.017.22-.017.332v18.754c0 1.926 1.457 3.49 3.316 3.628v7.433a2.884 2.884 0 1 0 5.77 0v-7.42h8.058v7.42a2.886 2.886 0 0 0 5.772 0v-7.433c1.858-.137 3.315-1.702 3.315-3.628V14.342c0-.113-.004-.223-.013-.333zM2.886 15.68a2.885 2.885 0 0 1 2.886 2.884v12.378a2.885 2.885 0 1 1-5.772 0V18.564a2.885 2.885 0 0 1 2.886-2.885zm36.312 0a2.884 2.884 0 0 1 2.886 2.884v12.378a2.884 2.884 0 0 1-2.886 2.886 2.884 2.884 0 0 1-2.885-2.886V18.564a2.884 2.884 0 0 1 2.885-2.885zM8.03 11.967h26.025c-.04-2.783-1.234-5.322-3.186-7.275L33.314.457a.305.305 0 0 0-.527-.305L30.416 4.26c-2.052-1.853-4.82-3.1-7.924-3.4h-2.9c-3.102.3-5.872 1.547-7.924 3.4L9.296.152a.303.303 0 0 0-.525.304l2.445 4.235c-1.95 1.955-3.147 4.494-3.185 7.277zm17.293-5.163c-.002-.805.664-1.46 1.49-1.462.824-.002 1.493.648 1.496 1.454v.008c0 .805-.665 1.46-1.49 1.462-.824.002-1.494-.65-1.497-1.454v-.008zm-11.143 0c0-.805.665-1.46 1.49-1.462.823-.002 1.493.648 1.496 1.454v.008c.002.805-.664 1.46-1.488 1.462-.825.002-1.495-.65-1.498-1.454v-.008z"/></symbol><symbol id="apple-logo" viewBox="0 0 46.21 56.753"><path fill="#FFF" d="M38.593 30.15c.08 8.59 7.535 11.447 7.617 11.483-.062.202-1.19 4.073-3.927 8.072-2.365 3.457-4.82 6.9-8.688 6.973-3.8.07-5.02-2.253-9.365-2.253-4.344 0-5.702 2.182-9.298 2.323-3.733.142-6.576-3.74-8.96-7.184-4.876-7.046-8.6-19.91-3.598-28.593C4.858 16.66 9.3 13.93 14.117 13.858c3.666-.07 7.126 2.466 9.366 2.466 2.24 0 6.444-3.05 10.865-2.6 1.85.076 7.044.746 10.38 5.628-.27.17-6.197 3.62-6.135 10.8m-7.14-21.088c1.982-2.4 3.316-5.74 2.952-9.062-2.857.115-6.312 1.904-8.36 4.302-1.837 2.123-3.445 5.52-3.01 8.778 3.183.246 6.435-1.62 8.418-4.018"/></symbol><symbol id="bg-hit-tablet" viewBox="0 6 61 61"><path fill="#D22856" d="M18.975 6L0 25.062V67L61.09 6z"/></symbol><symbol id="bg-hit" viewBox="0 0 74 73"><path fill="#D22856" d="M31 0L0 30.581V73L74 0z"/></symbol><symbol id="bg-triangle-white-footer" viewBox="0 0 595.28 61.905"><path d="M297.64 61.905L0 0h595.28z"/></symbol><symbol id="bg-triangle-white" viewBox="0 0 1200 94.074"><path d="M1200 0H0v94.074z"/></symbol><symbol id="bg-white-mask" viewBox="0 0 595.28 61.905" preserveAspectRatio="none"><path fill="#FFF" d="M297.64 61.905L0 0h595.28"/></symbol><symbol id="blog-post-icon" viewBox="2 3 28 26"><path fill="#d22856" d="M29 3H3a1 1 0 0 0 0 2h25v16H15c-.04 0-.076.018-.116.023a.938.938 0 0 0-.195.04.806.806 0 0 0-.188.087c-.033.02-.07.025-.102.05L8 26v-4a1 1 0 0 0-1-1H4V8a1 1 0 0 0-2 0v14a1 1 0 0 0 1 1h3v5a1 1 0 0 0 1.6.8l7.733-5.8H29a1 1 0 0 0 1-1V4a1 1 0 0 0-1-1z"/></symbol><symbol id="diagram-fill" viewBox="899.295 367.419 116.845 133.709"><path fill="#DDD" d="M901.352 428.26c-.133.484-2.057 9.89-2.057 15.134 0 24.958 16.058 46.17 38.513 54.223 6.224 2.222 12.91 3.51 19.908 3.51a58.13 58.13 0 0 0 8.57-.632c.297-.037.58-.124.88-.174 8.222-1.32 15.892-4.32 22.584-8.67a58.056 58.056 0 0 0 21.205-24.56c3.302-7.24 5.185-15.23 5.185-23.69 0-5.1-.677-10.05-1.94-14.76a57.174 57.174 0 0 0-11.085-21.57l3.36-3.32a5.976 5.976 0 0 0 0-8.52c-1.31-1.29-3.05-1.8-4.756-1.67-1.41.1-2.81.62-3.87 1.68l-3.36 3.32c-3.56-2.85-7.48-5.25-11.66-7.21a58.98 58.98 0 0 0-11.9-4.13c-.04 0-.08 0-.12-.01-1.8-.41-3.61-.77-5.48-1.01v-3.66h2.69c4.21 0 7.62-3.37 7.62-7.54 0-4.15-3.42-7.53-7.63-7.53h-21.1c-.68 0-1.32.12-1.95.27l-.01.02c-3.27.86-5.67 3.77-5.67 7.25 0 4.17 3.41 7.55 7.62 7.55h3.16v3.66c-19.64 2.53-36.16 14.72-44.64 31.56-1.7 3.36-3.1 6.88-4.1 10.56m86.89 45.3c-5.57 5.5-12.39 9.25-19.82 11.14-2.55.63-5.2.98-7.87 1.15-.38.03-.73.09-1.11.1-.58.03-1.14.12-1.72.12-1.59 0-3.16-.1-4.72-.265-9.75-1.05-18.78-5.28-25.81-12.23-8.16-8.06-12.65-18.776-12.65-30.167 0-.906.08-1.786.13-2.676.65-10.39 5.01-20.08 12.52-27.495.93-.92 1.91-1.78 2.9-2.61l.01-.006c7.74-6.384 17.4-9.88 27.61-9.88 1.87 0 3.7.128 5.51.36a43.475 43.475 0 0 1 15.97 5.33c.05.03.11.07.16.11 3.19 1.84 6.19 4.05 8.88 6.696.63.63 1.2 1.29 1.78 1.95.02.02.04.05.06.07 1.19 1.34 2.25 2.77 3.25 4.22.64.944 1.28 1.894 1.84 2.88 3.46 5.99 5.43 12.73 5.64 19.79.01.42.06.83.06 1.26 0 11.39-4.49 22.11-12.64 30.17z"/><path fill="#D22856" d="M957.784 400.795c23.766 0 43.1 19.123 43.1 42.63s-19.334 42.63-43.1 42.63-43.102-19.125-43.102-42.63c0-23.506 19.335-42.63 43.102-42.63m0-4.256c-26.18 0-47.402 20.99-47.402 46.88 0 25.89 21.222 46.88 47.402 46.88s47.4-20.99 47.4-46.89c0-25.9-21.222-46.89-47.4-46.89z"/><path d="M956.99 459.895h-23.696v-4.934l8.51-8.51c2.52-2.55 4.165-4.32 4.937-5.31.78-.98 1.33-1.9 1.67-2.74.34-.84.51-1.71.51-2.61 0-1.34-.37-2.35-1.12-3-.75-.65-1.75-.98-3-.98-1.31 0-2.59.3-3.82.9-1.23.6-2.52 1.45-3.87 2.55l-3.89-4.57c1.67-1.4 3.06-2.4 4.15-2.98 1.1-.58 2.3-1.03 3.6-1.34 1.3-.31 2.75-.47 4.36-.47 2.12 0 3.99.39 5.61 1.15 1.63.77 2.89 1.84 3.78 3.21s1.35 2.96 1.35 4.73c0 1.55-.27 3-.82 4.35-.55 1.35-1.4 2.74-2.55 4.17s-3.18 3.45-6.08 6.09l-4.35 4.06v.32H957v5.97zm27.868-6.955h-4.08v6.954h-7.003v-6.953h-14.468v-4.93l14.862-21.66h6.6v21.09h4.08v5.51zm-11.083-5.506v-5.69c0-.95.038-2.327.116-4.132.08-1.806.14-2.854.19-3.145h-.18a25.575 25.575 0 0 1-2.06 3.672l-6.21 9.29h8.16z" fill="#D22856"/></symbol><symbol id="facebook" viewBox="0 0 8.673 18.944"><path fill="#d22856" d="M6.275 3.357h2.398V0H5.795C2.655.18 1.54 2.387 1.948 6.115H0v3.517h1.958v9.312h3.837V9.632h2.857V6.115H5.786c-.02-1.045-.036-2.406.49-2.758z"/></symbol><symbol id="htmlacademy" viewBox="0 0 26.943 34.09"><path d="M13.62.017L13.472 0 0 1.412v24.66l13.472 8.018 13.43-7.99.042-.026V1.412L13.62.017zm11.4 12.11L13.494 5.334V5.23l-.088.05-.088-.056v.11L1.924 12.117v-8.97l11.547-1.213L25.02 3.147v8.98zm-11.615-5.34L24.923 13.5l-4.48 2.64-7.092-4.22-.012 1.414 5.904 3.513-.86.507-5.03-2.992-.014 1.415 3.827 2.275-.782.523-3.032-1.787-.012 1.413 1.852 1.092-1.8 1.08-11.356-6.75 11.37-6.835zm-11.48 8.34l11.41 6.79.016 1.045-7.94-4.728-.015 1.416 7.98 4.796.016 1.076-7.97-4.74-.014 1.414 8.02 4.82.046.027 8.143-4.872v-1.267l-.01-.148v-3.76l3.414-2.037v10.02L13.47 31.85 1.925 24.98v-9.853z"/></symbol><symbol id="icon-editor-contrast" viewBox="-35.422 -7.96 31.92 31.92"><path fill="#231F20" d="M-19.462-3.96c6.595 0 11.96 5.365 11.96 11.96s-5.365 11.96-11.96 11.96-11.96-5.365-11.96-11.96 5.365-11.96 11.96-11.96m0-4c-8.814 0-15.96 7.145-15.96 15.96 0 8.813 7.146 15.96 15.96 15.96S-3.502 16.813-3.502 8c0-8.815-7.146-15.96-15.96-15.96z"/><path d="M-19.462 16.331a8.519 8.519 0 0 0 8.52-8.52 8.518 8.518 0 0 0-8.52-8.519"/></symbol><symbol id="icon-editor-crop" viewBox="0 0 48 48"><path fill="none" d="M0 0h48v48H0V0z"/><path d="M34 30h4V14c0-2.21-1.79-4-4-4H18v4h16v16zm-20 4V2h-4v8H2v4h8v20c0 2.21 1.79 4 4 4h20v8h4v-8h8v-4H14z"/></symbol><symbol id="icon-editor-diagram-fill" viewBox="22.5 69.048 253 253"><path fill="#231F20" d="M149 69.048c-69.864 0-126.5 56.636-126.5 126.5s56.636 126.5 126.5 126.5 126.5-56.636 126.5-126.5c0-69.863-56.636-126.5-126.5-126.5zm0 237.216c-60.844 0-110.167-49.323-110.167-110.167S88.156 85.93 149 85.93c60.843 0 110.167 49.323 110.167 110.167S209.843 306.264 149 306.264z"/></symbol><symbol id="icon-editor-fill" viewBox="0 0 48 48"><path fill="none" d="M0 0h48v48H0V0z"/><path d="M33.12 17.88L15.24 0l-2.83 2.83 4.76 4.76L6.88 17.88a3 3 0 0 0 0 4.24l11 11c.58.59 1.35.88 2.12.88s1.54-.29 2.12-.88l11-11a3 3 0 0 0 0-4.24zM10.41 20L20 10.42 29.59 20H10.41zM38 23s-4 4.33-4 7c0 2.21 1.79 4 4 4s4-1.79 4-4c0-2.67-4-7-4-7zM0 40h48v3H0z"/></symbol><symbol id="icon-facebook" viewBox="0 0 8.673 18.944"><path d="M6.275 3.357h2.398V0H5.795C2.656.181 1.54 2.387 1.948 6.115H0v3.517h1.958v9.312h3.837V9.632h2.857V6.115H5.786c-.021-1.045-.036-2.406.489-2.758z"/></symbol><symbol id="icon-heart" viewBox="521.939 473.064 12.545 11.99"><path d="M528.174 485.055a.737.737 0 0 1-.552-.249c-3.798-4.324-4.644-5.298-4.858-5.572h-.004a3.866 3.866 0 0 1-.821-2.373 3.803 3.803 0 0 1 3.799-3.799c.934 0 1.804.32 2.484.898a3.847 3.847 0 0 1 2.463-.898 3.803 3.803 0 0 1 3.799 3.799c0 .909-.318 1.754-.896 2.381l-4.86 5.561a.735.735 0 0 1-.554.252zm-4.245-6.706c.208.255 2.471 2.839 4.243 4.858l4.323-4.944c.34-.369.52-.86.52-1.399a2.333 2.333 0 0 0-2.33-2.331c-.729 0-1.421.344-1.9.943a.76.76 0 0 1-.585.275.727.727 0 0 1-.575-.294 2.333 2.333 0 0 0-1.887-.925 2.333 2.333 0 0 0-2.33 2.331c0 .678.275 1.171.507 1.467l.014.019z"/></symbol><symbol id="icon-mail" viewBox="0 0 17.988 13.966"><path fill="#FFF" d="M14.914 1.814C16.111.816 15.816 0 14.257 0H3.731c-1.56 0-1.854.816-.657 1.814l3.742 3.118c1.197.998 3.158.998 4.355 0l3.743-3.118z"/><path fill="#FFF" d="M11.913 7.044A209.809 209.809 0 0 1 9.695 8.88l-.02.013a1.048 1.048 0 0 1-.235.136c-.033.015-.066.034-.1.048a1.18 1.18 0 0 1-.335.059l-.01.001h-.002l-.01-.001a1.216 1.216 0 0 1-.335-.059c-.034-.014-.068-.033-.1-.048a1.07 1.07 0 0 1-.235-.136l-.02-.013c-.022-.012-1.02-.838-2.218-1.836L2.178 3.796C.979 2.798 0 3.257 0 4.816v6.315a2.842 2.842 0 0 0 2.835 2.835h12.318a2.842 2.842 0 0 0 2.835-2.835V4.816c0-1.559-.979-2.018-2.178-1.02l-3.897 3.248z"/></symbol><symbol id="icon-map-marker" viewBox="0 0 35.983 35.983"><circle fill="#FFF" cx="17.991" cy="17.991" r="17.991"/><circle fill="#D22856" cx="17.991" cy="17.991" r="7.866"/></symbol><symbol id="icon-menu-burger" viewBox="0 0 49.945 24.007"><path fill="#FFF" d="M1.137 0C.51 0 0 .428 0 1.01v1.981c0 .558.494 1.01 1.139 1.01H48.81c.628 0 1.138-.428 1.138-1.01V1.01c0-.558-.494-1.01-1.138-1.01H1.137zm0 10.003c-.627 0-1.137.428-1.137 1.01v1.98c0 .557.494 1.01 1.139 1.01H48.81c.628 0 1.138-.428 1.138-1.01v-1.98c0-.558-.494-1.01-1.138-1.01H1.137zm0 10.002C.51 20.005 0 20.434 0 21.016v1.981c0 .557.494 1.01 1.139 1.01H48.81c.628 0 1.138-.428 1.138-1.01v-1.981c0-.558-.494-1.011-1.138-1.011H1.137z"/><path fill="#FFF" d="M1.137 0C.51 0 0 .428 0 1.01v1.981c0 .558.494 1.01 1.139 1.01H48.81c.628 0 1.138-.428 1.138-1.01V1.01c0-.558-.494-1.01-1.138-1.01H1.137zm0 10.003c-.627 0-1.137.428-1.137 1.01v1.98c0 .557.494 1.01 1.139 1.01H48.81c.628 0 1.138-.428 1.138-1.01v-1.98c0-.558-.494-1.01-1.138-1.01H1.137zm0 10.002C.51 20.005 0 20.434 0 21.016v1.981c0 .557.494 1.01 1.139 1.01H48.81c.628 0 1.138-.428 1.138-1.01v-1.981c0-.558-.494-1.011-1.138-1.011H1.137z"/></symbol><symbol id="icon-menu-cross" viewBox="0 0 23.867 23.867"><path fill="#FFF" d="M15.087 11.933l8.56-8.559a.75.75 0 0 0 0-1.061L21.554.22a.747.747 0 0 0-1.06 0l-8.561 8.56L3.373.22a.771.771 0 0 0-1.061 0L.22 2.313a.75.75 0 0 0 0 1.061l8.56 8.559-8.56 8.559a.751.751 0 0 0 0 1.062l2.093 2.094a.744.744 0 0 0 1.06 0l8.561-8.56 8.56 8.56a.746.746 0 0 0 1.06 0l2.093-2.094a.751.751 0 0 0 0-1.062l-8.56-8.559z"/></symbol><symbol id="icon-no" viewBox="0 0 26.752 26.752"><path fill="#f25b26" d="M15.497 13.376L26.312 2.562a1.498 1.498 0 1 0-2.12-2.12L13.375 11.254 2.562.44a1.496 1.496 0 0 0-2.12 0 1.496 1.496 0 0 0 0 2.12l10.813 10.815L.44 24.19a1.496 1.496 0 0 0 0 2.12c.292.294.676.44 1.06.44s.768-.146 1.06-.44l10.816-10.813L24.19 26.312a1.496 1.496 0 0 0 2.122 0 1.498 1.498 0 0 0 0-2.12L15.497 13.375z"/></symbol><symbol id="icon-phone" viewBox="0 0 19.697 19.696"><path fill="#FFF" d="M9.848 0C6.34 0 2.823.628 1.546 1.878.488 2.918.134 4.752.016 5.913c0 0-.016.115-.016.165 0 .454.369.82.819.82.054 0 2.028-.161 3.218-.259a.503.503 0 0 0 .086-.017.821.821 0 0 0 .801-.819l.003-1.617c0-.5.407-.902.907-.902h8.027c.499 0 .907.402.907.902l.003 1.617a.82.82 0 0 0 .802.82.474.474 0 0 0 .085.017c1.19.098 3.164.259 3.217.259a.822.822 0 0 0 .822-.82c0-.05-.018-.165-.018-.165-.118-1.161-.472-2.995-1.53-4.035C16.873.628 13.356 0 9.848 0zm0 10.67a1.64 1.64 0 1 0 0 3.281 1.64 1.64 0 1 0 0-3.281zM8.616 6.975V5.951a1.024 1.024 0 1 0-2.049 0v1.024L1.03 12.888a2.054 2.054 0 0 0-.619 1.47v1.646c0 .907.734 1.643 1.641 1.643h.411v1.023a1.026 1.026 0 1 0 2.05 0v-1.023h10.669v1.023a1.025 1.025 0 1 0 2.051 0v-1.023h.411c.905 0 1.64-.735 1.64-1.643v-1.646c0-.576-.236-1.094-.618-1.47L13.13 6.975V5.951a1.025 1.025 0 1 0-2.051 0v1.024H8.616zm1.232 2.053c1.814 0 3.282 1.468 3.282 3.282s-1.468 3.282-3.282 3.282c-1.813 0-3.281-1.468-3.281-3.282s1.467-3.282 3.281-3.282z"/></symbol><symbol id="icon-quotes" viewBox="0 0 78.672 63.789"><path d="M34.967 7.063L30.713 0C28.272 1.495 0 12.207 0 39.617c0 7.231.336 24.172 18.9 24.172 11.187 0 13.94-10.279 13.94-13.584 0-21.977-21.382-14.177-21.382-14.177 0-18.071 19.805-26.844 23.509-28.965zM78.672 7.063L74.418 0c-2.44 1.495-30.713 12.207-30.713 39.617 0 7.231.337 24.172 18.9 24.172 11.187 0 13.939-10.279 13.939-13.584 0-21.977-21.381-14.177-21.381-14.177.002-18.071 19.806-26.844 23.509-28.965z"/></symbol><symbol id="icon-review-arrow-left" viewBox="0 0 21.706 41.719"><path d="M2.045 20.859L21.458 1.446A.847.847 0 0 0 20.261.248L.248 20.261a.846.846 0 0 0 0 1.197l20.013 20.013a.843.843 0 0 0 1.198 0 .847.847 0 0 0 0-1.198L2.045 20.859z"/></symbol><symbol id="icon-review-arrow-right" viewBox="0 0 21.706 41.719"><path d="M19.661 20.859L.248 1.446A.847.847 0 0 1 1.445.248L21.458 20.26c.33.33.33.867 0 1.197L1.445 41.471a.843.843 0 0 1-1.198 0 .847.847 0 0 1 0-1.198l19.414-19.414z"/></symbol><symbol id="icon-timer" viewBox="0 0 298 345.097"><path d="M264.568 102.055l5.355-5.355c7.717-7.717 9.124-18.938 3.126-24.935-5.997-5.997-17.217-4.59-24.934 3.127l-5.386 5.385C221.768 63.292 196.11 51.875 168 48.297v-9.583h7.658c10.914 0 19.843-8.711 19.843-19.357S186.573 0 175.659 0h-53.317C111.429 0 102.5 8.711 102.5 19.357s8.929 19.357 19.842 19.357H130v9.583C56.681 57.629 0 120.244 0 196.097c0 82.291 66.709 149 149 149 82.29 0 149-66.709 149-149 0-35.663-12.535-68.394-33.432-94.042zM149 306.264c-60.844 0-110.167-49.323-110.167-110.167S88.156 85.93 149 85.93c60.843 0 110.167 49.323 110.167 110.167S209.843 306.264 149 306.264z"/></symbol><symbol id="icon-twitter" viewBox="0 0 17.5 14.663"><path fill-rule="evenodd" clip-rule="evenodd" d="M11.283.153c1.736-.485 3.074.263 3.685 1.151.694-.226 1.372-.47 2.072-.691-.004.841-.538 1.478-.883 1.727.704.166 1.343-.48 1.343-.48-.175.976-1.035 1.746-1.611 1.977-.239 6.592-3.272 10.956-10.382 10.823h-.46c-.422 0-4.29-.45-5.047-1.843 2.341.192 4.011-.412 4.835-1.15-.989-.293-2.761-.464-3.07-2.881.362.105.583.223 1.228.117C1.757 8.067.385 7.366.461 5.218c.294.32 1.1.523 1.381.461C1.117 5.444-.188 2.398.921.843 2.794 2.654 4.769 4.364 8.29 4.528 8.506 2.288 9.461.787 11.283.153z"/></symbol><symbol id="icon-yes" viewBox="0 0 30.375 21.688"><path fill="#3dc644" d="M29.936.44a1.496 1.496 0 0 0-2.12 0L10.187 18.065 2.56 10.44c-.585-.587-1.534-.587-2.12 0s-.586 1.534 0 2.12l8.688 8.688a1.496 1.496 0 0 0 2.122 0L29.936 2.56a1.5 1.5 0 0 0 0-2.12z"/></symbol><symbol id="icon-youtube" viewBox="0 0 14.64 13.96"><path d="M1.775 13.78C.799 14.257 0 13.758 0 12.671V1.29C0 .202.799-.295 1.775.181l12.133 5.932c.975.478.975 1.258 0 1.736L1.775 13.78z"/></symbol><symbol id="logo-android" viewBox="0 0 42.084 47.041"><path fill="#A4C639" d="M34.144 14.009H7.945c-.009.11-.018.22-.018.333v18.755c0 1.926 1.457 3.49 3.316 3.627v7.43a2.884 2.884 0 1 0 5.77 0v-7.42h8.058v7.42a2.884 2.884 0 0 0 2.885 2.885 2.884 2.884 0 0 0 2.886-2.885V36.72c1.858-.137 3.315-1.701 3.315-3.627V14.342c0-.113-.004-.223-.013-.333zM2.886 15.679a2.886 2.886 0 0 1 2.886 2.885v12.378a2.885 2.885 0 1 1-5.772 0V18.564a2.885 2.885 0 0 1 2.886-2.885zM39.198 15.679a2.885 2.885 0 0 1 2.886 2.885v12.378a2.885 2.885 0 0 1-2.886 2.886 2.884 2.884 0 0 1-2.885-2.886V18.564a2.884 2.884 0 0 1 2.885-2.885zM8.03 11.967h26.026c-.039-2.783-1.234-5.322-3.187-7.275L33.315.457a.304.304 0 1 0-.527-.304L30.416 4.26c-2.052-1.853-6.249-3.4-9.374-3.4-3.016 0-7.322 1.547-9.374 3.4L9.296.152a.304.304 0 0 0-.526.304l2.445 4.235c-1.95 1.954-3.147 4.493-3.185 7.276zm17.293-5.163c-.002-.805.664-1.46 1.488-1.462.826-.002 1.494.648 1.498 1.454v.008c.002.805-.664 1.46-1.49 1.462-.823.002-1.493-.649-1.496-1.454v-.008zm-11.143 0c-.001-.805.665-1.46 1.489-1.462.824-.002 1.494.648 1.497 1.454v.008c.002.805-.664 1.46-1.488 1.462-.825.002-1.495-.649-1.498-1.454v-.008z"/></symbol><symbol id="logo-apple" viewBox="0 0 46.21 56.753"><path fill="#FFF" d="M38.593 30.15c.081 8.59 7.535 11.447 7.617 11.483-.062.202-1.19 4.073-3.927 8.072-2.365 3.457-4.82 6.901-8.688 6.973-3.799.07-5.021-2.253-9.365-2.253s-5.702 2.182-9.298 2.32c-3.733.142-6.576-3.739-8.961-7.184-4.875-7.046-8.598-19.91-3.597-28.593 2.484-4.313 6.925-7.043 11.743-7.114 3.666-.069 7.126 2.466 9.366 2.466 2.241 0 6.444-3.049 10.865-2.601 1.85.077 7.044.747 10.38 5.629-.269.171-6.197 3.623-6.135 10.802m-7.14-21.088c1.982-2.4 3.316-5.739 2.952-9.062-2.857.115-6.312 1.904-8.36 4.302-1.837 2.123-3.445 5.521-3.011 8.778 3.184.246 6.436-1.619 8.419-4.018"/></symbol><symbol id="logo-blue-desktop" viewBox="0 0 146.3 40.375"><path d="M71.874 18.66c0-.707.58-1.287 1.256-1.287h7.18c5.087 0 8.436 2.704 8.436 7.147v.064c0 4.86-4.057 7.373-8.854 7.373h-5.474v6.825c0 .708-.58 1.288-1.288 1.288-.676 0-1.256-.58-1.256-1.288v-20.12zm8.114 10.98c3.734 0 6.182-1.996 6.182-4.958v-.064c0-3.22-2.415-4.894-6.054-4.894h-5.698v9.917h5.57zM93.603 18.5c0-.708.58-1.288 1.255-1.288.71 0 1.288.58 1.288 1.288v20.283c0 .708-.58 1.288-1.288 1.288-.676 0-1.255-.58-1.255-1.287V18.5zm9.141.032c0-.676.58-1.256 1.256-1.256h.354c.58 0 .934.29 1.288.74l13.684 17.45V18.468c0-.676.547-1.256 1.256-1.256.676 0 1.223.58 1.223 1.256v20.348c0 .676-.482 1.19-1.158 1.19h-.13c-.547 0-.933-.32-1.32-.77l-13.973-17.87v17.45c0 .676-.547 1.256-1.255 1.256-.678 0-1.225-.58-1.225-1.256V18.532zm25.43-.032c0-.708.58-1.288 1.256-1.288.708 0 1.287.58 1.287 1.288v12.33l12.847-13.167c.29-.257.58-.45.998-.45.676 0 1.224.61 1.224 1.255 0 .354-.16.644-.42.9l-7.983 7.92 8.564 10.562c.225.29.354.547.354.934 0 .676-.578 1.288-1.286 1.288-.483 0-.806-.258-1.03-.58L135.58 29.03l-4.86 4.86v4.894c0 .708-.58 1.288-1.288 1.288-.677 0-1.256-.58-1.256-1.288V18.5z" fill="#283645"/><path fill="#D22856" d="M98.498 9.875a3.624 3.624 0 0 1-3.624-3.624 3.624 3.624 0 0 1-3.624 3.625 3.624 3.624 0 0 1 3.624 3.624 3.624 3.624 0 0 1 3.624-3.625z"/><g fill="#D22856"><path d="M43.094 19.312c.246 0 .488.014.73.033a2.496 2.496 0 0 0-2.137-1.22c-.877 0-1.614-.57-1.884-1.355a11.94 11.94 0 0 0-2.09.816c.063.017.124.038.19.038a2 2 0 0 1 2 2c0 .096-.015.188-.028.28 1-.38 2.084-.592 3.22-.592z"/><path d="M60.498 28.32c0-.054-.01-.105-.016-.158-.006-.05-.01-.098-.02-.146-.002-.01 0-.017-.003-.025L55.286 6.65c-.36-2.347-2.593-6.65-8.6-6.65a1.5 1.5 0 1 0 0 3c4.857 0 5.576 3.73 5.64 4.143l4.767 19.7H55.02c-.444-3.556-2.45-6.627-5.303-8.522a2.505 2.505 0 0 0-1.53 2.304c0 .087-.015.17-.026.255a9.024 9.024 0 0 1 3.83 5.964c.083.49.136.988.136 1.5s-.053 1.01-.135 1.5c-.715 4.272-4.42 7.53-8.895 7.53s-8.18-3.258-8.896-7.53c-.083-.49-.136-.988-.136-1.5s.053-1.01.135-1.5a8.92 8.92 0 0 1 .807-2.484 1.994 1.994 0 0 1-1.85-1.985.74.74 0 0 0-.193-.49 11.96 11.96 0 0 0-1.796 4.958H29.46c-.742-5.927-5.802-10.53-11.927-10.53s-11.187 4.604-11.93 10.53H3.408l4.74-19.552.027-.147C8.197 6.973 8.802 3 13.812 3c.83 0 1.5-.67 1.5-1.5s-.67-1.5-1.5-1.5c-6.006 0-8.238 4.303-8.6 6.65L.043 27.99c-.002.01 0 .017-.003.025-.012.05-.015.098-.02.146-.008.054-.017.105-.017.16L0 28.343c0 .035.008.068.01.103.004.058.007.115.017.17.01.047.023.092.036.137.014.048.026.096.044.142.018.046.042.09.064.133.022.04.043.084.068.123.026.04.057.077.086.114.03.04.06.078.093.113.032.033.067.062.102.092.038.033.075.067.116.097.04.026.082.05.123.072.04.024.082.05.127.07.05.02.1.037.152.054.035.012.067.028.104.037.008.002.015 0 .023.003.107.023.217.04.33.04h4.104c.07.57.194 1.122.343 1.665.017-.06.038-.12.038-.187a2 2 0 0 1 2-2c.208 0 .405.04.594.1a8.941 8.941 0 0 1-.077-1.08c0-.51.053-1.01.135-1.5.716-4.27 4.42-7.53 8.896-7.53s8.182 3.26 8.897 7.53c.082.49.135.99.135 1.5s-.053 1.012-.135 1.5c-.716 4.273-4.42 7.532-8.896 7.532a8.951 8.951 0 0 1-5.443-1.84c-.356.33-.83.537-1.354.537a.75.75 0 0 0-.75.748c0 .265-.053.516-.146.747a11.944 11.944 0 0 0 7.694 2.808c6.126 0 11.187-4.604 11.928-10.53h1.708c.742 5.926 5.802 10.53 11.927 10.53S54.28 35.77 55.02 29.845H59c.114 0 .224-.017.33-.04.01-.002.016 0 .024-.003.037-.01.07-.025.105-.037.05-.017.103-.032.15-.054.046-.02.087-.045.13-.07.04-.022.083-.045.122-.072.042-.03.08-.063.117-.097.033-.028.07-.058.1-.09.035-.036.064-.075.094-.114.03-.037.06-.074.086-.114.025-.04.045-.082.067-.124.023-.043.046-.087.064-.133.02-.046.032-.094.045-.142.013-.045.027-.09.036-.136.01-.056.014-.113.018-.17.002-.035.01-.068.01-.104.002-.007 0-.015 0-.023z"/></g><path fill="#283645" d="M50.686 16.125a4.5 4.5 0 0 1-4.5-4.5c0 2.486-2.013 4.5-4.498 4.5a4.5 4.5 0 0 1 4.5 4.5c0-2.486 2.012-4.5 4.498-4.5zm-12.782 3.501c-1.52 0-2.75-1.23-2.75-2.75 0 1.52-1.23 2.75-2.748 2.75 1.52 0 2.75 1.23 2.75 2.75 0-1.52 1.23-2.75 2.748-2.75zm-27.17 14.446c-1.52 0-2.75-1.23-2.75-2.75 0 1.52-1.23 2.75-2.748 2.75 1.52 0 2.75 1.23 2.75 2.748a2.748 2.748 0 0 1 2.748-2.748z"/></symbol><symbol id="logo-blue-tablet" viewBox="0 0 146.3 40.375"><path d="M71.874 18.66c0-.707.58-1.287 1.256-1.287h7.18c5.087 0 8.436 2.704 8.436 7.147v.064c0 4.86-4.057 7.373-8.854 7.373h-5.474v6.825c0 .708-.58 1.288-1.288 1.288-.676 0-1.256-.58-1.256-1.288v-20.12zm8.114 10.98c3.734 0 6.182-1.996 6.182-4.958v-.064c0-3.22-2.415-4.894-6.054-4.894h-5.698v9.917h5.57zM93.603 18.5c0-.708.58-1.288 1.255-1.288.71 0 1.288.58 1.288 1.288v20.283c0 .708-.58 1.288-1.288 1.288-.676 0-1.255-.58-1.255-1.287V18.5zm9.141.032c0-.676.58-1.256 1.256-1.256h.354c.58 0 .934.29 1.288.74l13.684 17.45V18.468c0-.676.547-1.256 1.256-1.256.676 0 1.223.58 1.223 1.256v20.348c0 .676-.482 1.19-1.158 1.19h-.13c-.547 0-.933-.32-1.32-.77l-13.973-17.87v17.45c0 .676-.547 1.256-1.255 1.256-.678 0-1.225-.58-1.225-1.256V18.532zm25.43-.032c0-.708.58-1.288 1.256-1.288.708 0 1.287.58 1.287 1.288v12.33l12.847-13.167c.29-.257.58-.45.998-.45.676 0 1.224.61 1.224 1.255 0 .354-.16.644-.42.9l-7.983 7.92 8.564 10.562c.225.29.354.547.354.934 0 .676-.578 1.288-1.286 1.288-.483 0-.806-.258-1.03-.58L135.58 29.03l-4.86 4.86v4.894c0 .708-.58 1.288-1.288 1.288-.677 0-1.256-.58-1.256-1.288V18.5z" fill="#283645"/><path fill="#D22856" d="M60.498 28.32c0-.054-.01-.105-.016-.158-.006-.05-.01-.098-.02-.146-.002-.01 0-.017-.003-.025L55.286 6.65c-.36-2.347-2.593-6.65-8.6-6.65a1.5 1.5 0 1 0 0 3c4.857 0 5.576 3.73 5.64 4.143l4.767 19.7H55.02c-.74-5.926-5.8-10.53-11.926-10.53s-11.186 4.604-11.927 10.53H29.46c-.743-5.926-5.803-10.53-11.928-10.53S6.346 20.917 5.604 26.843H3.407l4.74-19.552.027-.147C8.197 6.973 8.802 3 13.812 3c.83 0 1.5-.67 1.5-1.5s-.67-1.5-1.5-1.5c-6.006 0-8.238 4.303-8.6 6.65L.043 27.99c-.002.01 0 .017-.003.025-.012.05-.015.098-.02.146-.008.054-.017.105-.017.16L0 28.343c0 .035.008.068.01.103.004.058.007.115.017.17.01.047.023.092.036.137.014.048.026.096.044.142.018.046.042.09.064.133.022.04.043.084.068.123.026.04.057.077.086.114.03.04.06.078.093.113.032.033.067.062.102.092.038.033.075.067.116.097.04.026.082.05.123.072.04.024.082.05.127.07.05.02.1.037.152.054.035.012.067.028.104.037.008.002.015 0 .023.003.107.023.217.04.33.04h4.104c.742 5.926 5.802 10.53 11.927 10.53s11.185-4.604 11.926-10.53h1.708c.742 5.926 5.802 10.53 11.927 10.53s11.187-4.604 11.928-10.53H59c.114 0 .224-.017.33-.04.01-.002.016 0 .024-.003.037-.01.07-.025.105-.037.05-.017.103-.032.15-.054.046-.02.087-.046.13-.07.04-.023.083-.046.122-.073.042-.03.08-.064.117-.098.033-.03.07-.06.1-.092.035-.035.064-.074.094-.113.03-.037.06-.074.086-.114.025-.04.045-.082.067-.124.023-.044.046-.088.064-.134.02-.046.032-.094.045-.142.013-.045.027-.09.036-.136.01-.056.014-.113.018-.17.002-.035.01-.068.01-.104.002-.008 0-.016 0-.024zM17.53 37.375c-4.474 0-8.18-3.26-8.895-7.53-.082-.49-.135-.99-.135-1.5s.053-1.012.135-1.5c.716-4.272 4.42-7.532 8.896-7.532s8.182 3.26 8.897 7.53c.082.49.135.99.135 1.5s-.053 1.012-.135 1.5c-.715 4.273-4.42 7.532-8.896 7.532zm25.564 0c-4.475 0-8.18-3.26-8.896-7.53-.082-.49-.135-.99-.135-1.5s.053-1.012.135-1.5c.716-4.272 4.42-7.532 8.896-7.532s8.18 3.26 8.896 7.53c.082.49.135.99.135 1.5s-.053 1.012-.135 1.5c-.716 4.273-4.42 7.532-8.896 7.532z"/></symbol><symbol id="logo-htmlacademy" viewBox="0 0 26.943 34.09"><path d="M13.62.017L13.472 0 0 1.412v24.661l13.472 8.017 13.43-7.99.042-.026V1.412L13.62.017zm11.399 12.11L13.495 5.334l-.001-.104-.087.05-.088-.056v.109L1.925 12.118V3.147l11.547-1.212 11.547 1.212v8.98zm-11.614-5.34L24.923 13.5l-4.479 2.64-7.093-4.221-.013 1.415 5.904 3.513-.86.507-5.031-2.992-.013 1.415 3.827 2.275-.782.523-3.032-1.787-.013 1.413 1.852 1.091-1.8 1.081-11.356-6.751 11.371-6.835zm-11.48 8.34l11.411 6.791.015 1.044-7.941-4.728-.015 1.416 7.979 4.796.017 1.076-7.972-4.741-.013 1.415 8.021 4.821.045.026 8.143-4.872v-1.268l-.011-.148v-3.761l3.415-2.036v10.02L13.472 31.85 1.925 24.979v-9.852z"/></symbol><symbol id="logo-microsoft" viewBox="0 0 43.922 41.992"><path fill="#F05423" d="M20.874 19.953H0V0h20.874v19.953z"/><path fill="#84C441" d="M43.922 19.953H23.049V0h20.873v19.953z"/><path fill="#2DABE2" d="M20.873 41.992H0V22.04h20.873v19.952z"/><path fill="#F9BC15" d="M43.922 41.992H23.049V22.04h20.873v19.952z"/></symbol><symbol id="logo-pink-blue-desktop" viewBox="0 0 146.3 40.375"><g fill="#283645"><path d="M71.874 18.661c0-.708.58-1.288 1.256-1.288h7.18c5.087 0 8.436 2.704 8.436 7.146v.063c0 4.86-4.057 7.373-8.854 7.373h-5.475v6.825c0 .708-.58 1.287-1.289 1.287-.676 0-1.256-.58-1.256-1.287l.002-20.119zm8.114 10.98c3.734 0 6.182-1.996 6.182-4.959v-.062c0-3.221-2.414-4.894-6.053-4.894h-5.699v9.917h5.57v-.002zM93.603 18.5c0-.708.579-1.288 1.255-1.288.709 0 1.288.58 1.288 1.288v20.283a1.29 1.29 0 0 1-1.288 1.287c-.676 0-1.255-.579-1.255-1.287V18.5zM102.744 18.532c0-.676.58-1.256 1.256-1.256h.354c.58 0 .935.29 1.288.74l13.684 17.45V18.468c0-.676.547-1.256 1.256-1.256.676 0 1.225.58 1.225 1.256v20.349c0 .677-.48 1.19-1.158 1.19h-.129c-.548 0-.936-.321-1.318-.772l-13.976-17.867v17.449c0 .677-.547 1.257-1.257 1.257-.676 0-1.223-.58-1.223-1.257V18.532h-.002zM128.173 18.5c0-.708.58-1.288 1.257-1.288.708 0 1.286.58 1.286 1.288v12.331l12.848-13.168c.29-.257.579-.451.998-.451.676 0 1.225.612 1.225 1.256 0 .354-.162.644-.42.901l-7.984 7.92 8.564 10.561c.225.291.354.547.354.936 0 .676-.577 1.288-1.285 1.288-.482 0-.807-.259-1.03-.58l-8.401-10.464-4.863 4.861v4.895a1.29 1.29 0 0 1-1.286 1.288c-.677 0-1.257-.58-1.257-1.288V18.5h-.006z"/></g><path fill="#D22856" d="M98.498 9.875a3.623 3.623 0 0 1-3.623-3.624 3.625 3.625 0 0 1-3.625 3.624 3.625 3.625 0 0 1 3.625 3.624 3.623 3.623 0 0 1 3.623-3.624z"/><g fill="#D22856"><path d="M43.094 19.313c.246 0 .489.014.73.033a2.491 2.491 0 0 0-2.136-1.221 1.994 1.994 0 0 1-1.884-1.354c-.727.208-1.425.482-2.089.816.062.017.122.038.188.038a2 2 0 0 1 2 2c0 .096-.015.188-.028.281 1-.382 2.084-.593 3.219-.593z"/><path d="M60.462 28.016L55.287 6.651C54.926 4.303 52.694 0 46.688 0a1.5 1.5 0 1 0 0 3c4.856 0 5.575 3.729 5.639 4.143l4.767 19.701h-2.073c-.445-3.557-2.453-6.628-5.305-8.522a2.503 2.503 0 0 0-1.529 2.303c0 .088-.015.171-.026.256a9.034 9.034 0 0 1 3.829 5.965c.082.488.135.987.135 1.5 0 .512-.053 1.012-.135 1.5-.716 4.271-4.421 7.53-8.896 7.53-4.475 0-8.181-3.259-8.896-7.53a9.035 9.035 0 0 1-.135-1.5c0-.513.053-1.012.135-1.5a8.945 8.945 0 0 1 .808-2.484 1.994 1.994 0 0 1-1.852-1.984.739.739 0 0 0-.192-.488 11.95 11.95 0 0 0-1.795 4.957h-1.82c-.741-5.927-5.802-10.531-11.927-10.531S6.235 20.917 5.493 26.844H3.42L8.187 7.143C8.25 6.729 8.97 3 13.826 3a1.5 1.5 0 1 0 0-3C7.82 0 5.588 4.303 5.227 6.651L.052 28.016c-.266 1.109.531 1.826 1.426 1.826.012 0 .023.004.036.004h3.982c.079.629.215 1.237.387 1.831a.726.726 0 0 0 .102-.354 2 2 0 0 1 2-2c.166 0 .324.024.478.062a8.337 8.337 0 0 1-.074-1.042c0-.512.053-1.011.135-1.5.715-4.271 4.421-7.531 8.896-7.531s8.18 3.26 8.896 7.531c.082.489.135.988.135 1.5s-.053 1.012-.135 1.5c-.715 4.272-4.421 7.531-8.896 7.531a8.959 8.959 0 0 1-5.386-1.794c-.35.302-.8.491-1.299.491a.75.75 0 0 0-.749.748c0 .289-.065.563-.176.812a11.94 11.94 0 0 0 7.614 2.743c6.125 0 11.185-4.604 11.927-10.529h1.814c.742 5.926 5.802 10.529 11.927 10.529s11.186-4.604 11.927-10.529H59c.012 0 .023-.005.036-.005.895.002 1.692-.715 1.426-1.824z"/></g><path fill="#283645" d="M50.686 16.125a4.499 4.499 0 0 1-4.499-4.499 4.499 4.499 0 0 1-4.499 4.499 4.499 4.499 0 0 1 4.499 4.499 4.498 4.498 0 0 1 4.499-4.499zM37.904 19.626a2.748 2.748 0 0 1-2.749-2.749 2.748 2.748 0 0 1-2.749 2.749 2.747 2.747 0 0 1 2.749 2.749 2.748 2.748 0 0 1 2.749-2.749zM10.734 34.072a2.748 2.748 0 0 1-2.749-2.75c0 1.52-1.23 2.75-2.749 2.75a2.747 2.747 0 0 1 2.749 2.748 2.748 2.748 0 0 1 2.749-2.748z"/></symbol><symbol id="logo-pink-blue-mobile" viewBox="0 0 146.3 40.375"><g fill="#283645"><path d="M71.874 18.661c0-.708.58-1.288 1.256-1.288h7.18c5.087 0 8.436 2.704 8.436 7.146v.063c0 4.86-4.057 7.373-8.854 7.373h-5.475v6.825c0 .708-.58 1.287-1.289 1.287-.676 0-1.256-.58-1.256-1.287l.002-20.119zm8.114 10.98c3.734 0 6.182-1.996 6.182-4.959v-.062c0-3.221-2.414-4.894-6.053-4.894h-5.699v9.917h5.57v-.002zM93.603 18.5c0-.708.579-1.288 1.255-1.288.709 0 1.288.58 1.288 1.288v20.283a1.29 1.29 0 0 1-1.288 1.287c-.676 0-1.255-.579-1.255-1.287V18.5zM102.744 18.532c0-.676.58-1.256 1.256-1.256h.354c.58 0 .935.29 1.288.74l13.684 17.45V18.468c0-.676.547-1.256 1.256-1.256.676 0 1.225.58 1.225 1.256v20.349c0 .677-.48 1.19-1.158 1.19h-.129c-.548 0-.936-.321-1.318-.772l-13.976-17.867v17.449c0 .677-.547 1.257-1.257 1.257-.676 0-1.223-.58-1.223-1.257V18.532h-.002zM128.173 18.5c0-.708.58-1.288 1.257-1.288.708 0 1.286.58 1.286 1.288v12.331l12.848-13.16c.29-.257.579-.451.998-.451.676 0 1.225.612 1.225 1.256 0 .354-.162.644-.42.901l-7.984 7.92 8.564 10.561c.225.291.354.547.354.936 0 .676-.577 1.288-1.285 1.288-.482 0-.807-.259-1.03-.58l-8.401-10.464-4.863 4.861v4.895a1.29 1.29 0 0 1-1.286 1.288c-.677 0-1.257-.58-1.257-1.288V18.5h-.006z"/></g><path fill="#D22856" d="M60.462 28.016L55.287 6.651C54.926 4.303 52.694 0 46.688 0a1.5 1.5 0 1 0 0 3c4.856 0 5.575 3.729 5.639 4.143l4.767 19.701h-2.073c-.742-5.927-5.802-10.531-11.927-10.531s-11.186 4.604-11.927 10.531h-1.82c-.741-5.927-5.802-10.531-11.927-10.531S6.235 20.917 5.493 26.844H3.42L8.187 7.143C8.25 6.729 8.97 3 13.826 3a1.5 1.5 0 1 0 0-3C7.82 0 5.588 4.303 5.227 6.651L.052 28.016c-.266 1.109.531 1.826 1.426 1.826.012 0 .023.004.036.004h3.982c.741 5.926 5.802 10.53 11.927 10.53s11.185-4.604 11.927-10.53h1.814c.742 5.926 5.802 10.53 11.927 10.53s11.186-4.604 11.927-10.53H59c.012 0 .023-.004.036-.004.895 0 1.692-.717 1.426-1.826zm-34.147 1.828c-.715 4.272-4.421 7.531-8.896 7.531s-8.18-3.259-8.896-7.531c-.082-.488-.135-.988-.135-1.5s.053-1.011.135-1.5c.715-4.271 4.421-7.531 8.896-7.531s8.18 3.26 8.896 7.531c.082.489.135.988.135 1.5s-.053 1.011-.135 1.5zm25.675 0c-.716 4.272-4.421 7.531-8.896 7.531-4.475 0-8.181-3.259-8.896-7.531-.082-.488-.135-.988-.135-1.5s.053-1.011.135-1.5c.716-4.271 4.421-7.531 8.896-7.531 4.475 0 8.181 3.26 8.896 7.531.082.489.135.988.135 1.5s-.053 1.011-.135 1.5z"/></symbol><symbol id="logo-pink-white-desktop" viewBox="0 0 146.3 40.375"><g fill="#FFF"><path d="M71.874 18.661c0-.708.58-1.288 1.256-1.288h7.18c5.087 0 8.436 2.704 8.436 7.146v.064c0 4.861-4.057 7.373-8.854 7.373h-5.475v6.825c0 .708-.58 1.288-1.288 1.288-.676 0-1.256-.58-1.256-1.288v-20.12zm8.114 10.98c3.734 0 6.182-1.996 6.182-4.959v-.063c0-3.22-2.414-4.894-6.053-4.894h-5.699v9.917h5.57v-.001zM93.603 18.5c0-.708.579-1.288 1.255-1.288.709 0 1.288.58 1.288 1.288v20.283a1.29 1.29 0 0 1-1.288 1.287c-.676 0-1.255-.579-1.255-1.287V18.5zM102.744 18.532c0-.676.58-1.256 1.256-1.256h.354c.58 0 .935.29 1.288.74l13.684 17.45V18.468c0-.676.547-1.256 1.256-1.256.676 0 1.224.58 1.224 1.256v20.349c0 .676-.481 1.19-1.158 1.19h-.129c-.548 0-.935-.321-1.319-.772l-13.975-17.868v17.45c0 .676-.547 1.256-1.256 1.256-.676 0-1.223-.58-1.223-1.256V18.532h-.002zM128.173 18.5c0-.708.58-1.288 1.257-1.288.708 0 1.286.58 1.286 1.288v12.331l12.848-13.168c.29-.257.579-.451.998-.451.676 0 1.225.612 1.225 1.256 0 .354-.162.644-.42.901l-7.984 7.92 8.564 10.561c.225.291.354.547.354.935 0 .676-.578 1.288-1.286 1.288-.483 0-.806-.258-1.03-.58l-8.402-10.463-4.863 4.861v4.894a1.29 1.29 0 0 1-1.286 1.288c-.677 0-1.257-.58-1.257-1.288V18.5h-.004z"/></g><path fill="#D22856" d="M98.498 9.875a3.623 3.623 0 0 1-3.623-3.624 3.625 3.625 0 0 1-3.625 3.624 3.625 3.625 0 0 1 3.625 3.624 3.623 3.623 0 0 1 3.623-3.624z"/><g fill="#FFF"><path d="M43.094 19.313c.246 0 .489.014.73.033a2.491 2.491 0 0 0-2.136-1.221 1.994 1.994 0 0 1-1.884-1.354c-.727.208-1.425.482-2.089.816.062.017.122.038.188.038a2 2 0 0 1 2 2c0 .096-.015.188-.028.281 1-.382 2.084-.593 3.219-.593z"/><path d="M60.462 28.016L55.287 6.651C54.926 4.303 52.694 0 46.688 0a1.5 1.5 0 1 0 0 3c4.856 0 5.575 3.729 5.639 4.143l4.767 19.701h-2.073c-.445-3.557-2.453-6.628-5.305-8.522a2.503 2.503 0 0 0-1.529 2.303c0 .088-.015.171-.026.256a9.034 9.034 0 0 1 3.829 5.964c.082.489.135.988.135 1.5s-.053 1.012-.135 1.5c-.716 4.272-4.421 7.531-8.896 7.531-4.475 0-8.181-3.259-8.896-7.531-.082-.488-.135-.988-.135-1.5s.053-1.011.135-1.5a8.949 8.949 0 0 1 .808-2.483 1.995 1.995 0 0 1-1.852-1.985.743.743 0 0 0-.192-.489 11.954 11.954 0 0 0-1.795 4.958h-1.82c-.741-5.927-5.802-10.531-11.927-10.531S6.235 20.917 5.493 26.844H3.42L8.187 7.143C8.25 6.729 8.97 3 13.826 3a1.5 1.5 0 1 0 0-3C7.82 0 5.588 4.303 5.227 6.651L.052 28.016c-.266 1.109.531 1.826 1.426 1.826.012 0 .023.004.036.004h3.982c.079.628.215 1.237.387 1.831a.726.726 0 0 0 .102-.354 2 2 0 0 1 2-2c.166 0 .324.025.478.063a8.337 8.337 0 0 1-.074-1.042c0-.512.053-1.011.135-1.5.715-4.271 4.421-7.531 8.896-7.531s8.18 3.26 8.896 7.531c.082.489.135.988.135 1.5s-.053 1.012-.135 1.5c-.715 4.272-4.421 7.531-8.896 7.531a8.959 8.959 0 0 1-5.386-1.794c-.35.302-.8.491-1.299.491a.75.75 0 0 0-.749.748c0 .29-.065.564-.176.812a11.94 11.94 0 0 0 7.614 2.743c6.125 0 11.185-4.604 11.927-10.53h1.814c.742 5.926 5.802 10.53 11.927 10.53s11.186-4.604 11.927-10.53H59c.012 0 .023-.004.036-.004.895.001 1.692-.716 1.426-1.825z"/></g><path fill="#D22856" d="M50.686 16.125a4.499 4.499 0 0 1-4.499-4.499 4.499 4.499 0 0 1-4.499 4.499 4.499 4.499 0 0 1 4.499 4.499 4.498 4.498 0 0 1 4.499-4.499zM37.904 19.626a2.748 2.748 0 0 1-2.749-2.749 2.748 2.748 0 0 1-2.749 2.749 2.747 2.747 0 0 1 2.749 2.749 2.748 2.748 0 0 1 2.749-2.749zM10.734 34.072a2.748 2.748 0 0 1-2.749-2.75c0 1.52-1.23 2.75-2.749 2.75a2.747 2.747 0 0 1 2.749 2.748 2.748 2.748 0 0 1 2.749-2.748z"/></symbol><symbol id="logo-pink-white-mobile" viewBox="0 0 74.426 22.859"><g fill="#FFF"><path d="M0 1.449C0 .741.58.161 1.256.161h7.18c5.087 0 8.436 2.704 8.436 7.147v.064c0 4.861-4.057 7.373-8.854 7.373H2.544v6.825c0 .708-.58 1.288-1.288 1.288C.58 22.859 0 22.279 0 21.571V1.449zm8.114 10.979c3.734 0 6.182-1.996 6.182-4.958v-.065c0-3.22-2.415-4.894-6.054-4.894H2.544v9.917h5.57zM21.729 1.288C21.729.58 22.308 0 22.983 0c.709 0 1.288.58 1.288 1.288v20.283c0 .708-.579 1.288-1.288 1.288-.676 0-1.255-.58-1.255-1.288V1.288zM30.87 1.32c0-.676.579-1.256 1.256-1.256h.354c.58 0 .934.29 1.288.74l13.684 17.45V1.256A1.256 1.256 0 0 1 48.707 0c.676 0 1.223.58 1.223 1.256v20.348c0 .676-.482 1.191-1.158 1.191h-.129c-.548 0-.934-.322-1.32-.772L33.349 4.153v17.45c0 .676-.547 1.256-1.255 1.256-.677 0-1.224-.58-1.224-1.256V1.32zM56.3 1.288C56.3.58 56.879 0 57.556 0c.708 0 1.287.58 1.287 1.288v12.331L71.689.451c.29-.258.58-.451.999-.451.676 0 1.224.612 1.224 1.256 0 .354-.161.644-.419.901l-7.984 7.92 8.564 10.561c.225.29.354.547.354.934 0 .676-.579 1.288-1.287 1.288-.483 0-.806-.258-1.03-.58l-8.403-10.463-4.862 4.861v4.894c0 .708-.579 1.288-1.287 1.288-.677 0-1.256-.58-1.256-1.288V1.288z"/></g></symbol><symbol id="logo-pink-white-tablet" viewBox="0 0 146.3 40.375"><g fill="#FFF"><path d="M71.874 18.661c0-.708.58-1.288 1.256-1.288h7.18c5.087 0 8.436 2.704 8.436 7.146v.064c0 4.861-4.057 7.373-8.854 7.373h-5.475v6.825c0 .708-.58 1.288-1.288 1.288-.676 0-1.256-.58-1.256-1.288v-20.12zm8.114 10.98c3.734 0 6.182-1.996 6.182-4.959v-.063c0-3.22-2.414-4.894-6.053-4.894h-5.699v9.917h5.57v-.001zM93.603 18.5c0-.708.579-1.288 1.255-1.288.709 0 1.288.58 1.288 1.288v20.283a1.29 1.29 0 0 1-1.288 1.287c-.676 0-1.255-.579-1.255-1.287V18.5zM102.744 18.532c0-.676.58-1.256 1.256-1.256h.354c.58 0 .935.29 1.288.74l13.684 17.45V18.468c0-.676.547-1.256 1.256-1.256.676 0 1.224.58 1.224 1.256v20.349c0 .676-.481 1.19-1.158 1.19h-.129c-.548 0-.935-.321-1.319-.772l-13.975-17.868v17.45c0 .676-.547 1.256-1.256 1.256-.676 0-1.223-.58-1.223-1.256V18.532h-.002zM128.173 18.5c0-.708.58-1.288 1.257-1.288.708 0 1.286.58 1.286 1.288v12.331l12.848-13.168c.29-.257.579-.451.998-.451.676 0 1.225.612 1.225 1.256 0 .354-.162.644-.42.901l-7.984 7.92 8.564 10.561c.225.291.354.547.354.935 0 .676-.578 1.288-1.286 1.288-.483 0-.806-.258-1.03-.58l-8.402-10.463-4.863 4.861v4.894a1.29 1.29 0 0 1-1.286 1.288c-.677 0-1.257-.58-1.257-1.288V18.5h-.004z"/></g><path fill="#FFF" d="M60.462 28.016L55.287 6.651C54.926 4.303 52.694 0 46.688 0a1.5 1.5 0 1 0 0 3c4.856 0 5.575 3.729 5.639 4.143l4.767 19.701h-2.073c-.742-5.927-5.802-10.531-11.927-10.531s-11.186 4.604-11.927 10.531h-1.82c-.741-5.927-5.802-10.531-11.927-10.531S6.235 20.917 5.493 26.844H3.42L8.187 7.143C8.25 6.729 8.97 3 13.826 3a1.5 1.5 0 1 0 0-3C7.82 0 5.588 4.303 5.227 6.651L.052 28.016c-.266 1.109.531 1.826 1.426 1.826.012 0 .023.004.036.004h3.982c.741 5.926 5.802 10.53 11.927 10.53s11.185-4.604 11.927-10.53h1.814c.742 5.926 5.802 10.53 11.927 10.53s11.186-4.604 11.927-10.53H59c.012 0 .023-.004.036-.004.895 0 1.692-.717 1.426-1.826zm-34.147 1.828c-.715 4.272-4.421 7.531-8.896 7.531-4.475 0-8.18-3.259-8.896-7.531-.082-.488-.135-.988-.135-1.5s.053-1.011.135-1.5c.715-4.271 4.421-7.531 8.896-7.531 4.475 0 8.18 3.26 8.896 7.531.082.489.135.988.135 1.5s-.053 1.011-.135 1.5zm25.675 0c-.716 4.272-4.421 7.531-8.896 7.531-4.475 0-8.181-3.259-8.896-7.531-.082-.488-.135-.988-.135-1.5s.053-1.011.135-1.5c.716-4.271 4.421-7.531 8.896-7.531 4.475 0 8.181 3.26 8.896 7.531.082.489.135.988.135 1.5s-.053 1.011-.135 1.5z"/></symbol><symbol id="logo-white-desktop" viewBox="0 0 146.3 40.375"><path d="M71.874 18.66c0-.707.58-1.287 1.256-1.287h7.18c5.087 0 8.436 2.704 8.436 7.147v.064c0 4.86-4.057 7.373-8.854 7.373h-5.474v6.825c0 .708-.58 1.288-1.288 1.288-.676 0-1.256-.58-1.256-1.288v-20.12zm8.114 10.98c3.734 0 6.182-1.996 6.182-4.958v-.064c0-3.22-2.415-4.894-6.054-4.894h-5.698v9.917h5.57zM93.603 18.5c0-.708.58-1.288 1.255-1.288.71 0 1.288.58 1.288 1.288v20.283c0 .708-.58 1.288-1.288 1.288-.676 0-1.255-.58-1.255-1.287V18.5zm9.141.032c0-.676.58-1.256 1.256-1.256h.354c.58 0 .934.29 1.288.74l13.684 17.45V18.468c0-.676.547-1.256 1.256-1.256.676 0 1.223.58 1.223 1.256v20.348c0 .676-.482 1.19-1.158 1.19h-.13c-.547 0-.933-.32-1.32-.77l-13.973-17.87v17.45c0 .676-.547 1.256-1.255 1.256-.678 0-1.225-.58-1.225-1.256V18.532zm25.43-.032c0-.708.58-1.288 1.256-1.288.708 0 1.287.58 1.287 1.288v12.33l12.847-13.167c.29-.257.58-.45.998-.45.676 0 1.224.61 1.224 1.255 0 .354-.16.644-.42.9l-7.983 7.92 8.564 10.562c.225.29.354.547.354.934 0 .676-.578 1.288-1.286 1.288-.483 0-.806-.258-1.03-.58L135.58 29.03l-4.86 4.86v4.894c0 .708-.58 1.288-1.288 1.288-.677 0-1.256-.58-1.256-1.288V18.5z" fill="#FFF"/><path fill="#D22856" d="M98.498 9.875a3.624 3.624 0 0 1-3.624-3.624 3.624 3.624 0 0 1-3.624 3.625 3.624 3.624 0 0 1 3.624 3.624 3.624 3.624 0 0 1 3.624-3.625z"/><g fill="#FFF"><path d="M43.094 19.312c.246 0 .488.014.73.033a2.496 2.496 0 0 0-2.137-1.22c-.877 0-1.614-.57-1.884-1.355a11.94 11.94 0 0 0-2.09.816c.063.017.124.038.19.038a2 2 0 0 1 2 2c0 .096-.015.188-.028.28 1-.38 2.084-.592 3.22-.592z"/><path d="M60.498 28.32c0-.054-.01-.105-.016-.158-.006-.05-.01-.098-.02-.146-.002-.01 0-.017-.003-.025L55.286 6.65c-.36-2.347-2.593-6.65-8.6-6.65a1.5 1.5 0 1 0 0 3c4.857 0 5.576 3.73 5.64 4.143l4.767 19.7H55.02c-.444-3.556-2.45-6.627-5.303-8.522a2.505 2.505 0 0 0-1.53 2.304c0 .087-.015.17-.026.255a9.024 9.024 0 0 1 3.83 5.964c.083.49.136.988.136 1.5s-.053 1.01-.135 1.5c-.715 4.272-4.42 7.53-8.895 7.53s-8.18-3.258-8.896-7.53c-.083-.49-.136-.988-.136-1.5s.053-1.01.135-1.5a8.92 8.92 0 0 1 .807-2.484 1.994 1.994 0 0 1-1.85-1.985.74.74 0 0 0-.193-.49 11.96 11.96 0 0 0-1.796 4.958H29.46c-.742-5.927-5.802-10.53-11.927-10.53s-11.187 4.604-11.93 10.53H3.408l4.74-19.552.027-.147C8.197 6.973 8.802 3 13.812 3c.83 0 1.5-.67 1.5-1.5s-.67-1.5-1.5-1.5c-6.006 0-8.238 4.303-8.6 6.65L.043 27.99c-.002.01 0 .017-.003.025-.012.05-.015.098-.02.146-.008.054-.017.105-.017.16L0 28.343c0 .035.008.068.01.103.004.058.007.115.017.17.01.047.023.092.036.137.014.048.026.096.044.142.018.046.042.09.064.133.022.04.043.084.068.123.026.04.057.077.086.114.03.04.06.078.093.113.032.033.067.062.102.092.038.033.075.067.116.097.04.026.082.05.123.072.04.024.082.05.127.07.05.02.1.037.152.054.035.012.067.028.104.037.008.002.015 0 .023.003.107.023.217.04.33.04h4.104c.07.57.194 1.122.343 1.665.017-.06.038-.12.038-.187a2 2 0 0 1 2-2c.208 0 .405.04.594.1a8.941 8.941 0 0 1-.077-1.08c0-.51.053-1.01.135-1.5.716-4.27 4.42-7.53 8.896-7.53s8.182 3.26 8.897 7.53c.082.49.135.99.135 1.5s-.053 1.012-.135 1.5c-.716 4.273-4.42 7.532-8.896 7.532a8.951 8.951 0 0 1-5.443-1.84c-.356.33-.83.537-1.354.537a.75.75 0 0 0-.75.748c0 .265-.053.516-.146.747a11.944 11.944 0 0 0 7.694 2.808c6.126 0 11.187-4.604 11.928-10.53h1.708c.742 5.926 5.802 10.53 11.927 10.53S54.28 35.77 55.02 29.845H59c.114 0 .224-.017.33-.04.01-.002.016 0 .024-.003.037-.01.07-.025.105-.037.05-.017.103-.032.15-.054.046-.02.087-.045.13-.07.04-.022.083-.045.122-.072.042-.03.08-.063.117-.097.033-.028.07-.058.1-.09.035-.036.064-.075.094-.114.03-.037.06-.074.086-.114.025-.04.045-.082.067-.124.023-.043.046-.087.064-.133.02-.046.032-.094.045-.142.013-.045.027-.09.036-.136.01-.056.014-.113.018-.17.002-.035.01-.068.01-.104.002-.007 0-.015 0-.023z"/></g><path fill="#D22856" d="M50.686 16.125a4.5 4.5 0 0 1-4.5-4.5c0 2.486-2.013 4.5-4.498 4.5a4.5 4.5 0 0 1 4.5 4.5c0-2.486 2.012-4.5 4.498-4.5zm-12.782 3.501c-1.52 0-2.75-1.23-2.75-2.75 0 1.52-1.23 2.75-2.748 2.75 1.52 0 2.75 1.23 2.75 2.75 0-1.52 1.23-2.75 2.748-2.75zm-27.17 14.446c-1.52 0-2.75-1.23-2.75-2.75 0 1.52-1.23 2.75-2.748 2.75 1.52 0 2.75 1.23 2.75 2.748a2.748 2.748 0 0 1 2.748-2.748z"/></symbol><symbol id="logo-white-mobile" viewBox="0 0 74.426 22.859"><path d="M0 1.45C0 .74.58.16 1.256.16h7.18c5.087 0 8.436 2.705 8.436 7.148v.064c0 4.86-4.057 7.373-8.854 7.373H2.544v6.825c0 .708-.58 1.288-1.288 1.288C.58 22.858 0 22.278 0 21.57V1.45zm8.114 10.978c3.734 0 6.182-1.996 6.182-4.958v-.065c0-3.22-2.415-4.894-6.054-4.894H2.544v9.918h5.57zM21.73 1.288C21.73.58 22.307 0 22.982 0c.71 0 1.288.58 1.288 1.288V21.57c0 .71-.578 1.29-1.287 1.29-.676 0-1.255-.58-1.255-1.29V1.29zm9.14.032c0-.676.58-1.256 1.256-1.256h.354c.58 0 .934.29 1.288.74l13.684 17.45V1.256C47.452.58 47.998 0 48.707 0c.676 0 1.223.58 1.223 1.256v20.348c0 .676-.482 1.19-1.158 1.19h-.13c-.547 0-.933-.32-1.32-.77L33.35 4.153v17.45c0 .675-.548 1.255-1.256 1.255-.677 0-1.224-.58-1.224-1.257V1.32zm25.43-.032C56.3.58 56.88 0 57.556 0c.708 0 1.287.58 1.287 1.288v12.33L71.69.452c.29-.257.58-.45.998-.45.676 0 1.224.612 1.224 1.256 0 .354-.16.644-.42.9l-7.983 7.92 8.563 10.562c.225.29.354.547.354.934 0 .676-.58 1.288-1.287 1.288-.483 0-.806-.258-1.03-.58l-8.403-10.463-4.862 4.86v4.895c0 .708-.58 1.288-1.287 1.288-.677 0-1.256-.58-1.256-1.288V1.288z" fill="#FFF"/></symbol><symbol id="logo-white-tablet" viewBox="0 0 146.3 40.375"><path d="M71.874 18.66c0-.707.58-1.287 1.256-1.287h7.18c5.087 0 8.436 2.704 8.436 7.147v.064c0 4.86-4.057 7.373-8.854 7.373h-5.474v6.825c0 .708-.58 1.288-1.288 1.288-.676 0-1.256-.58-1.256-1.288v-20.12zm8.114 10.98c3.734 0 6.182-1.996 6.182-4.958v-.064c0-3.22-2.415-4.894-6.054-4.894h-5.698v9.917h5.57zM93.603 18.5c0-.708.58-1.288 1.255-1.288.71 0 1.288.58 1.288 1.288v20.283c0 .708-.58 1.288-1.288 1.288-.676 0-1.255-.58-1.255-1.287V18.5zm9.141.032c0-.676.58-1.256 1.256-1.256h.354c.58 0 .934.29 1.288.74l13.684 17.45V18.468c0-.676.547-1.256 1.256-1.256.676 0 1.223.58 1.223 1.256v20.348c0 .676-.482 1.19-1.158 1.19h-.13c-.547 0-.933-.32-1.32-.77l-13.973-17.87v17.45c0 .676-.547 1.256-1.255 1.256-.678 0-1.225-.58-1.225-1.256V18.532zm25.43-.032c0-.708.58-1.288 1.256-1.288.708 0 1.287.58 1.287 1.288v12.33l12.847-13.167c.29-.257.58-.45.998-.45.676 0 1.224.61 1.224 1.255 0 .354-.16.644-.42.9l-7.983 7.92 8.564 10.562c.225.29.354.547.354.934 0 .676-.578 1.288-1.286 1.288-.483 0-.806-.258-1.03-.58L135.58 29.03l-4.86 4.86v4.894c0 .708-.58 1.288-1.288 1.288-.677 0-1.256-.58-1.256-1.288V18.5zM60.498 28.32c0-.054-.01-.105-.016-.158-.006-.05-.01-.098-.02-.146-.002-.01 0-.017-.003-.025L55.286 6.65c-.36-2.347-2.593-6.65-8.6-6.65a1.5 1.5 0 1 0 0 3c4.857 0 5.576 3.73 5.64 4.143l4.767 19.7H55.02c-.74-5.926-5.8-10.53-11.926-10.53s-11.186 4.604-11.927 10.53H29.46c-.743-5.926-5.803-10.53-11.928-10.53S6.346 20.917 5.604 26.843H3.407l4.74-19.552.027-.147C8.197 6.973 8.802 3 13.812 3c.83 0 1.5-.67 1.5-1.5s-.67-1.5-1.5-1.5c-6.006 0-8.238 4.303-8.6 6.65L.043 27.99c-.002.01 0 .017-.003.025-.012.05-.015.098-.02.146-.008.054-.017.105-.017.16L0 28.343c0 .035.008.068.01.103.004.058.007.115.017.17.01.047.023.092.036.137.014.048.026.096.044.142.018.046.042.09.064.133.022.04.043.084.068.123.026.04.057.077.086.114.03.04.06.078.093.113.032.033.067.062.102.092.038.033.075.067.116.097.04.026.082.05.123.072.04.024.082.05.127.07.05.02.1.037.152.054.035.012.067.028.104.037.008.002.015 0 .023.003.107.023.217.04.33.04h4.104c.742 5.926 5.802 10.53 11.927 10.53s11.185-4.604 11.926-10.53h1.708c.742 5.926 5.802 10.53 11.927 10.53s11.187-4.604 11.928-10.53H59c.114 0 .224-.017.33-.04.01-.002.016 0 .024-.003.037-.01.07-.025.105-.037.05-.017.103-.032.15-.054.046-.02.087-.046.13-.07.04-.023.083-.046.122-.073.042-.03.08-.064.117-.098.033-.03.07-.06.1-.092.035-.035.064-.074.094-.113.03-.037.06-.074.086-.114.025-.04.045-.082.067-.124.023-.044.046-.088.064-.134.02-.046.032-.094.045-.142.013-.045.027-.09.036-.136.01-.056.014-.113.018-.17.002-.035.01-.068.01-.104.002-.008 0-.016 0-.024zM17.53 37.375c-4.474 0-8.18-3.26-8.895-7.53-.082-.49-.135-.99-.135-1.5s.053-1.012.135-1.5c.716-4.272 4.42-7.532 8.896-7.532s8.182 3.26 8.897 7.53c.082.49.135.99.135 1.5s-.053 1.012-.135 1.5c-.715 4.273-4.42 7.532-8.896 7.532zm25.564 0c-4.475 0-8.18-3.26-8.896-7.53-.082-.49-.135-.99-.135-1.5s.053-1.012.135-1.5c.716-4.272 4.42-7.532 8.896-7.532s8.18 3.26 8.896 7.53c.082.49.135.99.135 1.5s-.053 1.012-.135 1.5c-.716 4.273-4.42 7.532-8.896 7.532z" fill="#FFF"/></symbol><symbol id="map-marker" viewBox="0 0 35.983 35.983"><circle fill="#FFF" cx="17.991" cy="17.991" r="17.991"/><circle fill="#D22856" cx="17.991" cy="17.991" r="7.866"/></symbol><symbol id="menu-burger" viewBox="0 0 49.945 24.007"><path fill="#231F20" d="M1.137 0C.51 0 0 .428 0 1.01v1.98C0 3.55.494 4 1.138 4h47.67c.63 0 1.14-.427 1.14-1.01V1.01c0-.558-.495-1.01-1.14-1.01H1.14zm0 10.003C.51 10.003 0 10.43 0 11.013v1.98c0 .557.494 1.01 1.138 1.01h47.67c.63 0 1.14-.428 1.14-1.01v-1.98c0-.558-.495-1.01-1.14-1.01H1.14zm0 10.002c-.627 0-1.137.43-1.137 1.01v1.982c0 .557.494 1.01 1.138 1.01h47.67c.63 0 1.14-.428 1.14-1.01v-1.98c0-.56-.495-1.012-1.14-1.012H1.14z"/><path fill="#231F20" d="M1.137 0C.51 0 0 .428 0 1.01v1.98C0 3.55.494 4 1.138 4h47.67c.63 0 1.14-.427 1.14-1.01V1.01c0-.558-.495-1.01-1.14-1.01H1.14zm0 10.003C.51 10.003 0 10.43 0 11.013v1.98c0 .557.494 1.01 1.138 1.01h47.67c.63 0 1.14-.428 1.14-1.01v-1.98c0-.558-.495-1.01-1.14-1.01H1.14zm0 10.002c-.627 0-1.137.43-1.137 1.01v1.982c0 .557.494 1.01 1.138 1.01h47.67c.63 0 1.14-.428 1.14-1.01v-1.98c0-.56-.495-1.012-1.14-1.012H1.14z"/></symbol><symbol id="menu-cross" viewBox="0 0 23.866 23.866"><path d="M15.087 11.933l8.56-8.56a.749.749 0 0 0 0-1.06L21.554.22a.75.75 0 0 0-1.06 0l-8.56 8.56L3.373.22a.772.772 0 0 0-1.062 0L.22 2.313a.749.749 0 0 0 0 1.06l8.56 8.56-8.56 8.56a.749.749 0 0 0 0 1.06l2.093 2.094a.75.75 0 0 0 1.06 0l8.56-8.56 8.56 8.56c.142.14.332.22.53.22s.39-.08.53-.22l2.094-2.094a.749.749 0 0 0 0-1.06l-8.56-8.56z"/></symbol><symbol id="microsoft-logo" viewBox="0 0 43.922 41.992"><path fill="#F05423" d="M20.874 19.953H0V0h20.874v19.953z"/><path fill="#84C441" d="M43.922 19.953H23.05V0h20.87v19.953z"/><path fill="#2DABE2" d="M20.873 41.992H0V22.04h20.873v19.952z"/><path fill="#F9BC15" d="M43.922 41.992H23.05V22.04h20.87v19.952z"/></symbol><symbol id="quotes" viewBox="0 0 78.673 63.788"><path d="M72.354 39.632c-2.797-2.4-6.636-3.604-11.518-3.604h-5.67c.473-4.08 1.278-7.397 2.42-9.948 1.142-2.55 2.855-5.044 5.14-7.477 2.363-2.51 4.685-4.53 6.97-6.063 2.283-1.53 5.274-3.356 8.978-5.477L74.42 0c-2.44 1.495-5.474 3.42-9.096 5.78-3.623 2.358-7.048 5.227-10.276 8.606-3.15 3.302-5.83 7.056-8.033 11.26-2.206 4.205-3.308 8.862-3.308 13.97 0 7.233 1.456 13.07 4.37 17.512 2.914 4.44 7.756 6.66 14.53 6.66 4.33 0 7.737-1.435 10.218-4.31s3.72-5.967 3.72-9.273c0-4.646-1.398-8.17-4.19-10.573zM19.02 18.603c2.36-2.51 4.684-4.53 6.97-6.063 2.282-1.53 5.273-3.356 8.977-5.477L30.713 0a394.404 394.404 0 0 0-9.095 5.78c-3.624 2.358-7.05 5.227-10.278 8.606-3.15 3.302-5.828 7.056-8.032 11.26C1.103 29.852 0 34.51 0 39.617c0 7.232 1.457 13.07 4.37 17.51 2.913 4.44 7.757 6.662 14.53 6.662 4.33 0 7.737-1.436 10.218-4.31 2.48-2.876 3.722-5.968 3.722-9.274 0-4.646-1.4-8.17-4.194-10.572-2.796-2.4-6.635-3.604-11.517-3.604h-5.672c.473-4.08 1.3-7.416 2.48-10.007 1.182-2.588 2.874-5.062 5.08-7.417z" fill="#efefef"/></symbol><symbol id="review-arrow-left" viewBox="0 0 21.706 41.719"><path fill="#bec2c7" d="M2.045 20.86L21.458 1.445A.847.847 0 0 0 20.261.247L.25 20.26a.849.849 0 0 0 0 1.198L20.26 41.47a.845.845 0 0 0 1.2 0 .847.847 0 0 0 0-1.197L2.044 20.86z"/></symbol><symbol id="review-arrow-right" viewBox="0 0 21.706 41.719"><path fill="#bec2c7" d="M19.66 20.86L.25 1.445A.847.847 0 0 1 1.447.247L21.458 20.26c.33.33.33.867 0 1.197L1.445 41.47a.842.842 0 0 1-1.198 0 .847.847 0 0 1 0-1.197L19.66 20.86z"/></symbol><symbol id="timer" viewBox="0 0 298.001 345.097"><path d="M293.057 157.98a148.438 148.438 0 0 0-28.273-55.688l8.567-8.563c6.075-6.078 6.075-15.93 0-22-3.333-3.34-7.78-4.656-12.128-4.333-3.596.254-7.146 1.596-9.866 4.333l-8.563 8.56c-9.083-7.354-19.08-13.552-29.734-18.627-9.618-4.558-19.752-8.195-30.34-10.67-.088-.015-.204-.015-.31-.037-4.587-1.065-9.204-1.985-13.962-2.613v-9.439h6.88c10.736 0 19.445-8.71 19.445-19.474 0-10.724-8.71-19.43-19.446-19.43h-53.832c-1.713 0-3.356.288-4.96.697 0 0-.01.03-.02.03-8.326 2.2-14.463 9.714-14.463 18.703 0 10.765 8.71 19.474 19.442 19.474h8.062v9.44C79.47 54.875 37.336 86.338 15.7 129.79c-4.32 8.66-7.893 17.746-10.454 27.24A147.983 147.983 0 0 0 0 196.09c0 64.416 40.952 119.158 98.227 139.945 15.87 5.734 32.922 9.062 50.772 9.062 7.434 0 14.735-.56 21.852-1.633.762-.096 1.484-.32 2.25-.45 20.967-3.433 40.53-11.17 57.597-22.393 23.57-15.495 42.377-37.463 54.08-63.388 8.424-18.7 13.222-39.326 13.222-61.144 0-13.168-1.726-25.935-4.945-38.108zm-66.21 115.963c-14.193 14.19-31.58 23.877-50.54 28.735-6.5 1.626-13.257 2.51-20.066 2.966-.97.06-1.88.23-2.844.24-1.476.073-2.916.3-4.396.3-4.044 0-8.062-.26-12.034-.69-24.86-2.697-47.885-13.608-65.823-31.55-20.794-20.794-32.258-48.455-32.258-77.855 0-2.33.198-4.6.334-6.897 1.658-26.815 12.765-51.82 31.923-70.97 2.383-2.37 4.875-4.594 7.42-6.735l.017-.013c19.75-16.48 44.38-25.5 70.42-25.5 4.76 0 9.44.327 14.052.93a109.827 109.827 0 0 1 40.743 13.758c.136.083.286.184.41.28 8.15 4.744 15.797 10.446 22.645 17.28 1.608 1.622 3.067 3.335 4.55 5.032.053.054.103.12.166.184 3.025 3.446 5.73 7.14 8.292 10.887 1.63 2.442 3.264 4.894 4.694 7.43a108.903 108.903 0 0 1 14.386 51.07c.038 1.09.152 2.148.152 3.262-.002 29.4-11.445 57.06-32.242 77.853z"/></symbol><symbol id="triangle-white" viewBox="0 0 1200 94.074" preserveAspectRatio="none"><path fill="#fff" d="M1200 0H0v94.074"/></symbol><symbol id="twitter" viewBox="0 0 17.5 14.663"><path fill="#d22856" fill-rule="evenodd" clip-rule="evenodd" d="M11.283.153c1.736-.485 3.074.263 3.685 1.15.694-.225 1.372-.47 2.072-.69-.004.84-.538 1.478-.883 1.727.704.166 1.343-.48 1.343-.48-.175.976-1.035 1.746-1.61 1.977-.24 6.592-3.273 10.956-10.383 10.823h-.46c-.422 0-4.29-.45-5.047-1.843 2.34.192 4.01-.412 4.835-1.15-.99-.293-2.76-.464-3.07-2.88.362.104.583.222 1.228.116C1.757 8.067.385 7.366.46 5.218c.295.32 1.1.523 1.382.46C1.117 5.445-.188 2.4.922.844c1.872 1.81 3.847 3.52 7.368 3.685.216-2.24 1.17-3.74 2.993-4.375z"/></symbol><symbol id="youtube" viewBox="0 0 14.64 13.96"><path fill="#d22856" d="M1.775 13.78C.8 14.257 0 13.758 0 12.67V1.29C0 .202.8-.295 1.775.18l12.133 5.933c.975.478.975 1.258 0 1.736L1.775 13.78z"/></symbol></svg>